<svg xmlns="http://www.w3.org/2000/svg" viewBox="0 0 16.933 16.933" height="64" width="64"><path transform="scale(.26458)" d="M28 4v8.426a20 20 0 0 0-7.021 2.896l-5.95-5.949-5.656 5.656 5.953 5.953A20 20 0 0 0 12.406 28H4v8h8.426a20 20 0 0 0 2.896 7.021l-5.949 5.95 5.656 5.656 5.953-5.953A20 20 0 0 0 28 51.594V60h8v-8.426a20 20 0 0 0 7.021-2.896l5.95 5.949 5.656-5.656-5.953-5.953A20 20 0 0 0 51.594 36H60v-8h-8.426a20 20 0 0 0-2.896-7.021l5.949-5.95-5.656-5.656-5.953 5.953A20 20 0 0 0 36 12.406V4h-8z" style="opacity:1;fill:#333;fill-opacity:1;stroke:none;stroke-width:1.25707865;stroke-linecap:round;stroke-linejoin:miter;stroke-miterlimit:4;stroke-dasharray:none;stroke-dashoffset:0;stroke-opacity:1"/></svg>